<svg width="188" height="24" viewBox="0 0 188 24" fill="none" xmlns="http://www.w3.org/2000/svg">
<g id="logo2">
<rect id="Rectangle 90" x="93.6133" y="3.86328" width="0.772532" height="15.4506" fill="#F1F1F1"/>
<g id="LOGO">
<g id="&#229;&#133;&#189;&#231;&#137;&#153;AI">
<path id="Vector" d="M181.287 5.13672H183.414L181.756 18.6741H179.629L181.287 5.13672Z" fill="#232730"/>
<path id="Vector_2" d="M174.806 5.13672C175.479 5.13672 175.87 5.46118 175.978 6.11011L178.033 18.6741H175.779L175.185 14.7625H169.362L167.794 18.6741H165.469L170.66 5.9659C170.888 5.41311 171.309 5.13672 171.922 5.13672H174.806ZM172.445 7.11955L170.155 12.7796H174.878L174.013 7.11955H172.445Z" fill="#232730"/>
<path id="Vector_3" d="M164.389 4.65039L164.19 6.29073H161.27L160.837 9.80576H164.479L164.28 11.4641H160.639L159.846 17.8993C159.774 18.38 159.6 18.7465 159.323 18.9989C159.047 19.2633 158.668 19.3654 158.188 19.3053C157.659 19.2332 157.1 19.1131 156.511 18.9448C155.862 18.7646 155.34 18.5723 154.943 18.368L155.159 16.6375C155.868 16.9259 156.764 17.1903 157.845 17.4306C157.869 17.4427 157.905 17.4487 157.953 17.4487C158.013 17.4487 158.055 17.4246 158.08 17.3766C158.116 17.3285 158.146 17.2504 158.17 17.1422L158.819 11.6804C157.869 12.9182 156.499 14.2341 154.709 15.6281C153.375 16.6615 151.891 17.6409 150.256 18.5663L148.742 17.4847C150.365 16.6195 151.837 15.7122 153.158 14.7628C154.685 13.6573 155.928 12.5577 156.89 11.4641H151.861C151.608 11.4641 151.41 11.404 151.266 11.2839C151.134 11.1637 151.068 11.0075 151.068 10.8152C151.068 10.671 151.098 10.5388 151.158 10.4186L152.419 7.13794H154.294L153.285 9.80576H159.035L159.468 6.29073H151.068L151.266 4.65039H164.389Z" fill="#232730"/>
<path id="Vector_4" d="M144.992 11.4103H132.608L133.167 6.77772C133.227 6.26098 133.383 5.88244 133.636 5.64209C133.9 5.40175 134.279 5.28158 134.771 5.28158H136.195L135.564 3.69531H137.205L137.836 5.28158H141.188L142.018 3.69531H143.766L142.847 5.28158H144.325C145.262 5.28158 145.689 5.77428 145.605 6.75969L144.992 11.4103ZM138.575 6.57943H134.789L134.645 7.75111H138.413L138.575 6.57943ZM143.838 7.75111L144.001 6.57943H140.161L139.999 7.75111H143.838ZM138.25 8.94081H134.501L134.357 10.0945H138.106L138.25 8.94081ZM139.692 10.0945H143.532L143.676 8.94081H139.837L139.692 10.0945ZM131.437 12.2756H146.344L146.146 13.6996H131.238L131.437 12.2756ZM143.82 19.1614H132.482L132.861 16.061C132.921 15.5442 133.077 15.1657 133.329 14.9254C133.594 14.673 133.972 14.5468 134.465 14.5468H142.955C143.916 14.5468 144.343 15.0455 144.235 16.043L143.82 19.1614ZM134.321 17.7554H142.324L142.558 15.9708H134.537L134.321 17.7554Z" fill="#232730"/>
</g>
<g id="&#229;&#133;&#189;&#231;&#137;&#153;AI_2">
<path id="Vector_5" d="M181.049 5.13672H183.176L181.518 18.6741H179.391L181.049 5.13672Z" fill="#232730"/>
<path id="Vector_6" d="M174.568 5.13672C175.241 5.13672 175.631 5.46118 175.739 6.11011L177.794 18.6741H175.541L174.946 14.7625H169.124L167.556 18.6741H165.23L170.422 5.9659C170.65 5.41311 171.071 5.13672 171.684 5.13672H174.568ZM172.206 7.11955L169.917 12.7796H174.64L173.775 7.11955H172.206Z" fill="#232730"/>
<path id="Vector_7" d="M164.15 4.65039L163.952 6.29073H161.032L160.599 9.80576H164.24L164.042 11.4641H160.401L159.608 17.8993C159.536 18.38 159.361 18.7465 159.085 18.9989C158.809 19.2633 158.43 19.3654 157.949 19.3053C157.421 19.2332 156.862 19.1131 156.273 18.9448C155.624 18.7646 155.101 18.5723 154.705 18.368L154.921 16.6375C155.63 16.9259 156.525 17.1903 157.607 17.4306C157.631 17.4427 157.667 17.4487 157.715 17.4487C157.775 17.4487 157.817 17.4246 157.841 17.3766C157.877 17.3285 157.907 17.2504 157.931 17.1422L158.58 11.6804C157.631 12.9182 156.261 14.2341 154.47 15.6281C153.137 16.6615 151.652 17.6409 150.018 18.5663L148.504 17.4847C150.126 16.6195 151.598 15.7122 152.92 14.7628C154.446 13.6573 155.69 12.5577 156.652 11.4641H151.622C151.37 11.4641 151.172 11.404 151.028 11.2839C150.895 11.1637 150.829 11.0075 150.829 10.8152C150.829 10.671 150.859 10.5388 150.919 10.4186L152.181 7.13794H154.056L153.046 9.80576H158.797L159.229 6.29073H150.829L151.028 4.65039H164.15Z" fill="#232730"/>
<path id="Vector_8" d="M144.754 11.4103H132.37L132.929 6.77772C132.989 6.26098 133.145 5.88244 133.397 5.64209C133.662 5.40175 134.04 5.28158 134.533 5.28158H135.957L135.326 3.69531H136.967L137.597 5.28158H140.95L141.779 3.69531H143.528L142.609 5.28158H144.087C145.024 5.28158 145.451 5.77428 145.367 6.75969L144.754 11.4103ZM138.336 6.57943H134.551L134.407 7.75111H138.174L138.336 6.57943ZM143.6 7.75111L143.762 6.57943H139.923L139.761 7.75111H143.6ZM138.012 8.94081H134.263L134.118 10.0945H137.868L138.012 8.94081ZM139.454 10.0945H143.294L143.438 8.94081H139.598L139.454 10.0945ZM131.198 12.2756H146.106L145.907 13.6996H131L131.198 12.2756ZM143.582 19.1614H132.244L132.622 16.061C132.682 15.5442 132.839 15.1657 133.091 14.9254C133.355 14.673 133.734 14.5468 134.227 14.5468H142.717C143.678 14.5468 144.105 15.0455 143.997 16.043L143.582 19.1614ZM134.082 17.7554H142.086L142.32 15.9708H134.299L134.082 17.7554Z" fill="#232730"/>
</g>
<g id="logo" clip-path="url(#clip0_3801_32093)">
<g id="logo_2" clip-path="url(#clip1_3801_32093)">
<path id="Vector_9" d="M123.974 14.2045C123.947 14.367 123.923 14.4483 123.898 14.5458C123.418 16.5263 122.377 18.2711 120.962 19.6166C120.631 19.9312 119.108 21.2582 116.809 21.1165C114.81 20.9935 112.959 19.2034 112.969 16.8409C112.977 14.8581 114.22 13.1596 116.385 13.1016C118.157 13.054 119.101 13.8771 120.058 13.9525C120.96 14.0234 122.06 13.8446 122.776 13.3976C123.724 12.8079 124.117 13.328 123.974 14.2045Z" fill="#00E1EF"/>
<path id="Vector_10" d="M122.924 7.69651C122.923 7.6971 122.923 7.69724 122.922 7.69681C122.912 7.68781 122.902 7.67881 122.892 7.66981C122.656 7.45968 122.46 7.21009 122.311 6.93263C122.273 6.86298 122.238 6.791 122.208 6.7167C121.231 4.50168 119.441 3.0784 117.261 2.29246C117.193 2.26808 117.124 2.24486 117.054 2.22048C116.846 2.15083 116.634 2.08814 116.418 2.03358C115.808 1.87453 115.174 1.77005 114.524 1.72477C112.806 1.6052 111.154 1.90936 109.674 2.55134C109.479 2.63261 109.288 2.72316 109.101 2.82067C105.948 4.41925 103.693 7.58506 103.428 11.365C103.094 16.1491 106.055 20.4039 110.382 21.9049C110.391 21.9084 110.4 21.9119 110.411 21.9154C112.352 22.3786 113.429 21.7877 112.319 20.1578C112.184 19.9604 111.501 18.7647 111.275 17.9578C111.069 17.2264 110.94 16.1004 110.993 15.3516C111.247 11.6541 113.7 10.9436 115.052 11.0376C116.404 11.1317 117.255 11.7969 117.364 13.0344C117.377 13.1691 117.36 13.5603 117.357 13.5986C117.301 14.417 117.04 15.1728 116.629 15.8206C116.455 16.0957 116.238 16.336 116.03 16.5821C115.614 17.0755 116.37 17.115 116.879 16.8898C117.249 16.7261 117.508 16.6019 117.877 16.3198C118.338 15.9669 118.723 15.5814 119.063 15.1542C119.423 14.6991 120.067 13.5289 120.074 13.515C120.415 12.87 121.013 12.3902 121.723 12.2057C121.726 12.2048 121.73 12.2023 121.733 12.2021C121.735 12.202 121.736 12.2019 121.737 12.2016C121.769 12.1949 121.802 12.1872 121.834 12.1785C121.836 12.1779 121.838 12.1775 121.84 12.1764C121.842 12.1754 121.844 12.1751 121.846 12.1746C122.326 12.0512 122.757 11.7915 123.089 11.437C123.319 11.1943 123.503 10.9088 123.625 10.5895C123.716 10.3515 123.776 10.0961 123.794 9.82911C123.854 8.99023 123.508 8.21514 122.925 7.69621C122.925 7.69578 122.924 7.69593 122.924 7.69651ZM118.98 8.05407C118.532 8.11792 118.171 7.72902 118.255 7.296C118.31 7.01622 118.557 6.80145 118.843 6.78519C119.288 6.75965 119.626 7.1799 119.491 7.61757C119.42 7.84743 119.218 8.02041 118.98 8.05407Z" fill="#015CFF"/>
</g>
</g>
</g>
<g id="LOGO_2">
<g id="Union">
<path d="M46.9029 17.9352C46.7742 17.9294 46.6426 17.824 46.6835 17.6368C47.3944 15.5245 48.1054 13.4152 48.8192 11.3029C48.8689 11.1098 48.7139 11.0367 48.632 11.0396H46.5431C46.4027 11.0396 46.2856 10.9226 46.2856 10.7821V10.0771C46.2856 9.93665 46.4027 9.81963 46.5431 9.81963H48.6495C48.6992 9.81963 48.7402 9.81378 48.7899 9.805C48.9713 9.75819 49.1147 9.60606 49.1439 9.41297V7.48501C49.1118 7.27437 48.945 7.11053 48.7373 7.0842H46.5431C46.4027 7.0842 46.2856 6.96718 46.2856 6.82675V5.59801C46.2856 5.35226 46.4875 5.15039 46.7333 5.15039H48.8631C49.1088 5.15039 49.3107 5.35226 49.3107 5.59801V5.70333C49.3165 5.82913 49.4072 5.90812 49.5213 5.90812H54.7874C54.9278 5.90812 55.0448 6.02514 55.0448 6.16557V6.82675C55.0448 6.96718 54.9278 7.0842 54.7874 7.0842H52.5961C52.3826 7.11053 52.21 7.28314 52.1865 7.50256V9.39542C52.207 9.5768 52.327 9.72308 52.485 9.78452C52.5522 9.81085 52.6283 9.8167 52.6985 9.8167H54.7874C54.9278 9.8167 55.0448 9.93373 55.0448 10.0742V10.7792C55.0448 10.9197 54.9278 11.0367 54.7874 11.0367H52.6956C52.6195 11.0308 52.4499 11.1127 52.5113 11.3058L54.644 17.6339C54.6791 17.786 54.5972 17.9235 54.4246 17.9352H52.4557C52.2279 17.9238 52.1691 17.7793 52.1419 17.7123L52.1397 17.707C51.9343 17.0616 51.7288 16.2771 51.5233 15.4926C51.2929 14.6129 51.0624 13.733 50.832 13.0495C50.7296 12.7013 50.595 12.7043 50.4956 13.0641C50.2776 13.8365 50.0589 14.6088 49.8402 15.3812C49.6215 16.1535 49.4029 16.9259 49.1849 17.6982C49.1322 17.8533 49.024 17.9235 48.8806 17.9352H46.9029Z" fill="#232730"/>
<path fill-rule="evenodd" clip-rule="evenodd" d="M56.8967 5.90812H62.0429C62.6484 5.90812 63.1458 6.40547 63.1458 7.01106V16.841C63.1458 17.4466 62.6484 17.944 62.0429 17.944H56.8967C56.2911 17.944 55.7938 17.4466 55.7938 16.841V7.01106C55.7938 6.40547 56.2911 5.90812 56.8967 5.90812ZM58.7691 6.93792H60.1061C60.2641 6.93792 60.3928 7.06665 60.3928 7.22463V16.6245C60.3928 16.7825 60.2641 16.9113 60.1061 16.9113H58.7691C58.6111 16.9113 58.4824 16.7825 58.4824 16.6245V7.22463C58.4824 7.06665 58.6111 6.93792 58.7691 6.93792Z" fill="#232730"/>
<path d="M31.1428 18.0259C30.6133 18.0171 29.9902 17.4203 30.4114 16.686L33.2844 11.8734C33.4072 11.5428 33.2814 11.0835 32.7665 11.0367H29.5835C29.3963 11.0367 29.2412 10.8816 29.2412 10.6944V10.0098C29.2412 9.82255 29.3963 9.6675 29.5835 9.6675H44.267C44.4543 9.6675 44.6093 9.82255 44.6093 10.0098V10.6944C44.6093 10.8816 44.4543 11.0367 44.267 11.0367H37.7751C37.5996 11.0601 37.4504 11.1566 37.3539 11.2941L34.6828 15.7703C34.4692 16.3291 34.7589 16.8966 35.3498 16.9932H39.0829C39.6534 16.8996 39.943 16.3642 39.7675 15.8259C39.5568 15.4938 39.2774 15.0711 38.998 14.6483C38.7186 14.2256 38.4393 13.8028 38.2286 13.4708C38.0736 13.2426 38.2608 13.0875 38.4129 13.108H41.5521C41.6311 13.108 41.7422 13.1402 41.8212 13.2572L44.0827 16.686C44.504 17.4203 43.8808 18.0171 43.3513 18.0259H31.1428Z" fill="#232730"/>
<path d="M29.5718 5.90812H44.2729C44.4572 5.90812 44.6064 6.05732 44.6064 6.24163V6.90867C44.6064 7.09298 44.4572 7.24219 44.2729 7.24219H29.5718C29.3875 7.24219 29.2383 7.09298 29.2383 6.90867V6.24163C29.2383 6.05732 29.3875 5.90812 29.5718 5.90812Z" fill="#232730"/>
<path fill-rule="evenodd" clip-rule="evenodd" d="M64.4565 17.6075L65.4219 15.8083V15.8112C65.6197 15.4429 65.6125 15.2778 65.5995 14.9768C65.5958 14.8904 65.5916 14.7928 65.5916 14.6761V10.4662C65.5916 10.1824 65.8227 9.95126 66.1065 9.95126H80.1756C80.4594 9.95126 80.6905 10.1824 80.6905 10.4662V15.112C80.6905 15.3958 80.4594 15.6269 80.1756 15.6269H69.0847C68.9531 15.6298 68.8536 15.6854 68.7922 15.8083C68.6152 16.1375 68.4389 16.4666 68.2626 16.7958C68.0863 17.1249 67.9101 17.454 67.7331 17.7831C67.6805 17.8708 67.5927 17.944 67.4581 17.944H64.6583C64.4506 17.941 64.3921 17.7128 64.4565 17.6075ZM71.3389 12.8739C71.5868 12.4 71.8348 11.926 72.0893 11.4404H72.0864C72.1917 11.2268 72.0571 10.9928 71.8085 10.9811H69.1462C68.8916 10.9811 68.6839 11.1888 68.6839 11.4433V14.1319C68.6839 14.3865 68.8916 14.5942 69.1462 14.5942H70.1116C70.2813 14.5883 70.5095 14.4567 70.5885 14.3075C70.843 13.8218 71.091 13.3479 71.3389 12.8739ZM74.8086 12.6896C74.5622 13.1599 74.3157 13.6302 74.0553 14.1261L74.0524 14.1231C73.9237 14.3718 74.1401 14.6 74.3274 14.5912H77.136C77.3905 14.5912 77.5982 14.3835 77.5982 14.129V11.4404C77.5982 11.1859 77.3905 10.9781 77.136 10.9781H75.9921C75.799 10.9752 75.6205 11.1039 75.562 11.2531C75.3016 11.749 75.0551 12.2193 74.8086 12.6896Z" fill="#232730"/>
<path d="M74.8101 7.60494V7.11637L74.8072 7.11929C74.8072 6.94668 74.9593 6.85306 75.0646 6.85306H80.4331C80.5735 6.85306 80.6905 6.73604 80.6905 6.59561V6.08071C80.6905 5.94028 80.5735 5.82326 80.4331 5.82326H74.8072V5.65357C74.8072 5.41367 74.6112 5.21766 74.3713 5.21766H71.8816C71.6417 5.21766 71.4457 5.41367 71.4457 5.65357V5.82326H65.8461C65.7057 5.82326 65.5887 5.93736 65.5887 6.08071V6.59561C65.5887 6.73604 65.7057 6.85306 65.8461 6.85306H71.197C71.3462 6.85306 71.4486 6.96424 71.4486 7.10759V7.6342C71.4515 7.74537 71.3491 7.88287 71.1999 7.88287H65.849C65.7086 7.88287 65.5916 7.99989 65.5916 8.14032V8.65523C65.5916 8.79565 65.7086 8.91268 65.849 8.91268H80.436C80.5764 8.91268 80.6935 8.79565 80.6935 8.65523V8.14032C80.6935 7.99697 80.5764 7.88287 80.436 7.88287H75.0676C74.8774 7.88287 74.8101 7.72489 74.8101 7.60494Z" fill="#232730"/>
</g>
<g id="logo_3" clip-path="url(#clip2_3801_32093)">
<g id="Group">
<path id="Vector_11" fill-rule="evenodd" clip-rule="evenodd" d="M18.1111 21.0241C17.2791 21.5737 16.3676 22.0019 15.3961 22.291C15.3125 22.3153 15.2289 22.291 15.171 22.2226C14.5212 21.4567 13.5647 20.9733 12.4989 20.9733C11.433 20.9733 10.4766 21.4567 9.82676 22.2226C9.76886 22.291 9.68522 22.3153 9.60159 22.291C8.63225 22.0019 7.71868 21.5715 6.88659 21.0241C6.83512 20.9909 6.80295 20.9424 6.79009 20.8806C6.77722 20.8188 6.79009 20.7614 6.82226 20.7084C8.04894 18.8301 10.1334 17.5918 12.4967 17.5918C14.86 17.5918 16.9445 18.8279 18.1712 20.7084C18.2055 20.7614 18.2162 20.8188 18.2034 20.8806C18.1905 20.9424 18.1583 20.9909 18.1069 21.0241H18.1111Z" fill="#003768"/>
<path id="Vector_12" fill-rule="evenodd" clip-rule="evenodd" d="M15.3961 1.70839C16.3654 1.99754 17.279 2.42795 18.1111 2.97535C18.1626 3.00846 18.1947 3.05702 18.2076 3.11882C18.2205 3.18062 18.2076 3.23801 18.1754 3.29098C16.9487 5.16935 14.8643 6.40761 12.501 6.40761C10.1377 6.40761 8.05317 5.17155 6.82649 3.29098C6.79218 3.23801 6.78146 3.18062 6.79433 3.11882C6.80719 3.05702 6.83936 3.00846 6.89083 2.97535C7.71863 2.42795 8.63006 1.99754 9.60154 1.70839C9.68517 1.68411 9.76881 1.70839 9.82671 1.77682C10.4765 2.54273 11.433 3.02612 12.4988 3.02612C13.5647 3.02612 14.5211 2.54273 15.1709 1.77682C15.2288 1.70839 15.3125 1.68411 15.3961 1.70839Z" fill="#1AA9A4"/>
<path id="Vector_13" fill-rule="evenodd" clip-rule="evenodd" d="M22.7956 13.5657C22.5619 15.2057 21.9678 16.7243 21.0971 18.0354C21.0714 18.0729 21.0307 18.0905 20.9856 18.0795C20.9427 18.0707 20.9106 18.0353 20.9041 17.9912C20.7454 17.0311 20.4345 16.1217 19.997 15.2962C19.9455 15.199 19.9712 15.0821 20.057 15.0158C20.8376 14.4199 21.5475 13.7334 22.1758 12.9719C22.2209 12.9168 22.2831 12.8903 22.3538 12.8947C22.4246 12.8991 22.4825 12.9344 22.519 12.9962C22.6047 13.1375 22.6884 13.2787 22.7699 13.4244C22.7956 13.4686 22.802 13.5149 22.7956 13.5657ZM16.006 11.4732C14.9359 10.9766 13.7499 10.6985 12.4996 10.6985C8.28133 10.6985 4.77714 13.8526 4.09303 17.9934C4.08659 18.0376 4.05443 18.0729 4.01154 18.0817C3.96864 18.0905 3.92575 18.0751 3.90002 18.0376C3.02933 16.7242 2.43529 15.2057 2.20154 13.5657C2.19511 13.5149 2.20154 13.4686 2.22727 13.4244C4.26888 9.76262 8.10333 7.29492 12.4975 7.29492C14.7085 7.29492 16.778 7.91957 18.5473 9.00553C18.6009 9.03864 18.6352 9.08941 18.6481 9.15121C18.6609 9.21522 18.6481 9.27482 18.6073 9.32558C17.9575 10.1996 17.1362 10.9302 16.1947 11.4622C16.1347 11.4975 16.0682 11.4997 16.0038 11.4688L16.006 11.4732Z" fill="#003768"/>
<path id="Vector_14" fill-rule="evenodd" clip-rule="evenodd" d="M21.0993 5.96341C21.97 7.27451 22.564 8.79309 22.7978 10.4331C22.8042 10.4838 22.7978 10.5302 22.772 10.5743C20.7304 14.2361 16.896 16.7038 12.5018 16.7038C10.2908 16.7038 8.22128 16.0792 6.45203 14.9932C6.39842 14.9601 6.3641 14.9094 6.35123 14.8475C6.33837 14.7835 6.35123 14.7239 6.39198 14.6732C7.04178 13.7991 7.86314 13.0707 8.80459 12.5366C8.86464 12.5013 8.93112 12.499 8.99546 12.5299C10.0656 13.0266 11.2515 13.3047 12.5018 13.3047C16.7201 13.3047 20.2243 10.1505 20.9084 6.00976C20.9148 5.96562 20.947 5.9303 20.9899 5.92147C21.0328 5.91264 21.0757 5.92809 21.1014 5.96562L21.0993 5.96341ZM2.47819 11.0025C2.3924 10.8613 2.30877 10.72 2.22727 10.5743C2.20154 10.5302 2.19511 10.4838 2.20154 10.4331C2.43529 8.79309 3.02933 7.27451 3.90002 5.96341C3.92575 5.92589 3.9665 5.90823 4.01154 5.91926C4.05443 5.92809 4.08659 5.96341 4.09303 6.00755C4.25172 6.9677 4.56268 7.87709 5.00017 8.70259C5.05164 8.79971 5.02591 8.9167 4.94012 8.98291C4.15951 9.57887 3.44966 10.2653 2.82131 11.0268C2.77628 11.082 2.71409 11.1085 2.64332 11.1041C2.57255 11.0997 2.51464 11.0643 2.47819 11.0025Z" fill="#1AA9A4"/>
</g>
</g>
</g>
</g>
<defs>
<clipPath id="clip0_3801_32093">
<rect width="20.6009" height="20.6009" fill="white" transform="translate(103.402 1.69922)"/>
</clipPath>
<clipPath id="clip1_3801_32093">
<rect width="20.6009" height="20.6009" fill="white" transform="translate(103.402 1.69922)"/>
</clipPath>
<clipPath id="clip2_3801_32093">
<rect width="20.6009" height="20.6009" fill="white" transform="translate(2.19922 1.69922)"/>
</clipPath>
</defs>
</svg>
